<?xml version="1.0" encoding="UTF-8"?>
<!DOCTYPE svg PUBLIC "-//W3C//DTD SVG 1.1//EN" "http://www.w3.org/Graphics/SVG/1.1/DTD/svg11.dtd">
<svg xmlns="http://www.w3.org/2000/svg" style="background: #FFFFFF; background-color: light-dark(#FFFFFF, #121212); color-scheme: light dark;" xmlns:xlink="http://www.w3.org/1999/xlink" version="1.1" width="662px" height="501px" viewBox="0 0 662 501"><defs/><rect fill="#FFFFFF" width="100%" height="100%" x="0" y="0" style="fill: light-dark(rgb(255, 255, 255), rgb(18, 18, 18));"/><g><g data-cell-id="0"><g data-cell-id="1"><g data-cell-id="title"><g transform="translate(0.5,0.5)"><rect x="234" y="0" width="200" height="30" fill="none" stroke="none" pointer-events="all"/></g><g><g fill="#000000" font-family="Helvetica" font-weight="bold" text-anchor="middle" font-size="18px" style="fill: light-dark(rgb(0, 0, 0), rgb(255, 255, 255));"><text x="334" y="23">系统总体架构图</text></g></g></g><g data-cell-id="layer1"><g transform="translate(0.5,0.5)"><path d="M 40 40 L 2.4 40 Q 0 40 0 42.4 L 0 117.6 Q 0 120 2.4 120 L 40 120" fill="#f5f9ff" stroke="#3366cc" stroke-miterlimit="10" pointer-events="all" style="fill: light-dark(rgb(245, 249, 255), rgb(21, 24, 29)); stroke: light-dark(rgb(51, 102, 204), rgb(111, 155, 242));"/><path d="M 40 120 L 657.6 120 Q 660 120 660 117.6 L 660 42.4 Q 660 40 657.6 40 L 40 40" fill="none" stroke="#3366cc" stroke-miterlimit="10" pointer-events="none" style="stroke: light-dark(rgb(51, 102, 204), rgb(111, 155, 242));"/><path d="M 40 40 L 40 120" fill="none" stroke="#3366cc" stroke-miterlimit="10" pointer-events="none" style="stroke: light-dark(rgb(51, 102, 204), rgb(111, 155, 242));"/></g><g><g fill="#000000" font-family="Helvetica" font-weight="bold" text-anchor="middle" transform="rotate(-90,20,80)" font-size="14px" style="fill: light-dark(rgb(0, 0, 0), rgb(255, 255, 255));"><text x="20" y="86">前端层</text></g></g><g data-cell-id="f1"><g transform="translate(0.5,0.5)" style="filter: drop-shadow(light-dark(rgba(0, 0, 0, 0.25), rgba(237, 237, 237, 0.25)) 2px 3px 2px);"><rect x="60" y="60" width="120" height="40" rx="6" ry="6" fill="#ffffff" stroke="#333333" pointer-events="all" style="fill: light-dark(rgb(255, 255, 255), rgb(18, 18, 18)); stroke: light-dark(rgb(51, 51, 51), rgb(193, 193, 193));"/></g><g><g fill="#000000" font-family="Helvetica" text-anchor="middle" font-size="12px" style="fill: light-dark(rgb(0, 0, 0), rgb(255, 255, 255));"><text x="120" y="85">Vue 3 核心框架</text></g></g></g><g data-cell-id="f2"><g transform="translate(0.5,0.5)" style="filter: drop-shadow(light-dark(rgba(0, 0, 0, 0.25), rgba(237, 237, 237, 0.25)) 2px 3px 2px);"><rect x="210" y="60" width="120" height="40" rx="6" ry="6" fill="#ffffff" stroke="#333333" pointer-events="all" style="fill: light-dark(rgb(255, 255, 255), rgb(18, 18, 18)); stroke: light-dark(rgb(51, 51, 51), rgb(193, 193, 193));"/></g><g><g fill="#000000" font-family="Helvetica" text-anchor="middle" font-size="12px" style="fill: light-dark(rgb(0, 0, 0), rgb(255, 255, 255));"><text x="270" y="85">Ant Design Vue</text></g></g></g><g data-cell-id="f3"><g transform="translate(0.5,0.5)" style="filter: drop-shadow(light-dark(rgba(0, 0, 0, 0.25), rgba(237, 237, 237, 0.25)) 2px 3px 2px);"><rect x="360" y="60" width="120" height="40" rx="6" ry="6" fill="#ffffff" stroke="#333333" pointer-events="all" style="fill: light-dark(rgb(255, 255, 255), rgb(18, 18, 18)); stroke: light-dark(rgb(51, 51, 51), rgb(193, 193, 193));"/></g><g><g fill="#000000" font-family="Helvetica" text-anchor="middle" font-size="12px" style="fill: light-dark(rgb(0, 0, 0), rgb(255, 255, 255));"><text x="420" y="85">Axios 请求层</text></g></g></g><g data-cell-id="f4"><g transform="translate(0.5,0.5)" style="filter: drop-shadow(light-dark(rgba(0, 0, 0, 0.25), rgba(237, 237, 237, 0.25)) 2px 3px 2px);"><rect x="510" y="60" width="120" height="40" rx="6" ry="6" fill="#ffffff" stroke="#333333" pointer-events="all" style="fill: light-dark(rgb(255, 255, 255), rgb(18, 18, 18)); stroke: light-dark(rgb(51, 51, 51), rgb(193, 193, 193));"/></g><g><g fill="#000000" font-family="Helvetica" text-anchor="middle" font-size="12px" style="fill: light-dark(rgb(0, 0, 0), rgb(255, 255, 255));"><text x="570" y="85">AMap JS SDK</text></g></g></g></g><g data-cell-id="layer2"><g transform="translate(0.5,0.5)"><path d="M 40 140 L 2.4 140 Q 0 140 0 142.4 L 0 267.6 Q 0 270 2.4 270 L 40 270" fill="#f0fff0" stroke="#3366cc" stroke-miterlimit="10" pointer-events="all" style="fill: light-dark(rgb(240, 255, 240), rgb(12, 25, 12)); stroke: light-dark(rgb(51, 102, 204), rgb(111, 155, 242));"/><path d="M 40 270 L 657.6 270 Q 660 270 660 267.6 L 660 142.4 Q 660 140 657.6 140 L 40 140" fill="none" stroke="#3366cc" stroke-miterlimit="10" pointer-events="none" style="stroke: light-dark(rgb(51, 102, 204), rgb(111, 155, 242));"/><path d="M 40 140 L 40 270" fill="none" stroke="#3366cc" stroke-miterlimit="10" pointer-events="none" style="stroke: light-dark(rgb(51, 102, 204), rgb(111, 155, 242));"/></g><g><g fill="#000000" font-family="Helvetica" font-weight="bold" text-anchor="middle" transform="rotate(-90,20,205)" font-size="14px" style="fill: light-dark(rgb(0, 0, 0), rgb(255, 255, 255));"><text x="20" y="211">后端层</text></g></g><g data-cell-id="b1"><g transform="translate(0.5,0.5)" style="filter: drop-shadow(light-dark(rgba(0, 0, 0, 0.25), rgba(237, 237, 237, 0.25)) 2px 3px 2px);"><rect x="60" y="160" width="270" height="40" rx="6" ry="6" fill="#ffffff" stroke="#333333" pointer-events="all" style="fill: light-dark(rgb(255, 255, 255), rgb(18, 18, 18)); stroke: light-dark(rgb(51, 51, 51), rgb(193, 193, 193));"/></g><g><g fill="#000000" font-family="Helvetica" text-anchor="middle" font-size="12px" style="fill: light-dark(rgb(0, 0, 0), rgb(255, 255, 255));"><text x="195" y="185">FastAPI 路由网关 (/api/*)</text></g></g></g><g data-cell-id="b2"><g transform="translate(0.5,0.5)" style="filter: drop-shadow(light-dark(rgba(0, 0, 0, 0.25), rgba(237, 237, 237, 0.25)) 2px 3px 2px);"><rect x="360" y="160" width="270" height="40" rx="6" ry="6" fill="#ffffff" stroke="#333333" pointer-events="all" style="fill: light-dark(rgb(255, 255, 255), rgb(18, 18, 18)); stroke: light-dark(rgb(51, 51, 51), rgb(193, 193, 193));"/></g><g><g fill="#000000" font-family="Helvetica" text-anchor="middle" font-size="12px" style="fill: light-dark(rgb(0, 0, 0), rgb(255, 255, 255));"><text x="495" y="185">Pydantic 数据模型与校验</text></g></g></g><g data-cell-id="b3"><g transform="translate(0.5,0.5)" style="filter: drop-shadow(light-dark(rgba(0, 0, 0, 0.25), rgba(237, 237, 237, 0.25)) 2px 3px 2px);"><rect x="60" y="210" width="570" height="40" rx="6" ry="6" fill="#ffffff" stroke="#333333" pointer-events="all" style="fill: light-dark(rgb(255, 255, 255), rgb(18, 18, 18)); stroke: light-dark(rgb(51, 51, 51), rgb(193, 193, 193));"/></g><g><g fill="#000000" font-family="Helvetica" text-anchor="middle" font-size="12px" style="fill: light-dark(rgb(0, 0, 0), rgb(255, 255, 255));"><text x="345" y="235">API Services (地图/大模型/Unsplash 接口封装)</text></g></g></g></g><g data-cell-id="layer3"><g transform="translate(0.5,0.5)"><path d="M 40 290 L 2.4 290 Q 0 290 0 292.4 L 0 367.6 Q 0 370 2.4 370 L 40 370" fill="#fff5e6" stroke="#3366cc" stroke-miterlimit="10" pointer-events="all" style="fill: light-dark(rgb(255, 245, 230), rgb(32, 24, 11)); stroke: light-dark(rgb(51, 102, 204), rgb(111, 155, 242));"/><path d="M 40 370 L 657.6 370 Q 660 370 660 367.6 L 660 292.4 Q 660 290 657.6 290 L 40 290" fill="none" stroke="#3366cc" stroke-miterlimit="10" pointer-events="none" style="stroke: light-dark(rgb(51, 102, 204), rgb(111, 155, 242));"/><path d="M 40 290 L 40 370" fill="none" stroke="#3366cc" stroke-miterlimit="10" pointer-events="none" style="stroke: light-dark(rgb(51, 102, 204), rgb(111, 155, 242));"/></g><g><g fill="#000000" font-family="Helvetica" font-weight="bold" text-anchor="middle" transform="rotate(-90,20,330)" font-size="14px" style="fill: light-dark(rgb(0, 0, 0), rgb(255, 255, 255));"><text x="20" y="336">Agent 层</text></g></g><g data-cell-id="a2"><g transform="translate(0.5,0.5)" style="filter: drop-shadow(light-dark(rgba(0, 0, 0, 0.25), rgba(237, 237, 237, 0.25)) 2px 3px 2px);"><rect x="60" y="310" width="120" height="40" rx="6" ry="6" fill="#ffffff" stroke="#333333" pointer-events="all" style="fill: light-dark(rgb(255, 255, 255), rgb(18, 18, 18)); stroke: light-dark(rgb(51, 51, 51), rgb(193, 193, 193));"/></g><g><g fill="#000000" font-family="Helvetica" text-anchor="middle" font-size="12px" style="fill: light-dark(rgb(0, 0, 0), rgb(255, 255, 255));"><text x="120" y="335">景点搜索 Agent</text></g></g></g><g data-cell-id="a3"><g transform="translate(0.5,0.5)" style="filter: drop-shadow(light-dark(rgba(0, 0, 0, 0.25), rgba(237, 237, 237, 0.25)) 2px 3px 2px);"><rect x="210" y="310" width="120" height="40" rx="6" ry="6" fill="#ffffff" stroke="#333333" pointer-events="all" style="fill: light-dark(rgb(255, 255, 255), rgb(18, 18, 18)); stroke: light-dark(rgb(51, 51, 51), rgb(193, 193, 193));"/></g><g><g fill="#000000" font-family="Helvetica" text-anchor="middle" font-size="12px" style="fill: light-dark(rgb(0, 0, 0), rgb(255, 255, 255));"><text x="270" y="335">天气查询 Agent</text></g></g></g><g data-cell-id="a4"><g transform="translate(0.5,0.5)" style="filter: drop-shadow(light-dark(rgba(0, 0, 0, 0.25), rgba(237, 237, 237, 0.25)) 2px 3px 2px);"><rect x="360" y="310" width="120" height="40" rx="6" ry="6" fill="#ffffff" stroke="#333333" pointer-events="all" style="fill: light-dark(rgb(255, 255, 255), rgb(18, 18, 18)); stroke: light-dark(rgb(51, 51, 51), rgb(193, 193, 193));"/></g><g><g fill="#000000" font-family="Helvetica" text-anchor="middle" font-size="12px" style="fill: light-dark(rgb(0, 0, 0), rgb(255, 255, 255));"><text x="420" y="335">酒店推荐 Agent</text></g></g></g><g data-cell-id="a5"><g transform="translate(0.5,0.5)" style="filter: drop-shadow(light-dark(rgba(0, 0, 0, 0.25), rgba(237, 237, 237, 0.25)) 2px 3px 2px);"><rect x="510" y="310" width="120" height="40" rx="6" ry="6" fill="#ffffff" stroke="#333333" pointer-events="all" style="fill: light-dark(rgb(255, 255, 255), rgb(18, 18, 18)); stroke: light-dark(rgb(51, 51, 51), rgb(193, 193, 193));"/></g><g><g fill="#000000" font-family="Helvetica" text-anchor="middle" font-size="12px" style="fill: light-dark(rgb(0, 0, 0), rgb(255, 255, 255));"><text x="570" y="335">行程规划 Agent</text></g></g></g></g><g data-cell-id="layer4"><g transform="translate(0.5,0.5)"><path d="M 40 390 L 2.4 390 Q 0 390 0 392.4 L 0 497.6 Q 0 500 2.4 500 L 40 500" fill="#f8f8ff" stroke="#3366cc" stroke-miterlimit="10" pointer-events="all" style="fill: light-dark(rgb(248, 248, 255), rgb(23, 23, 29)); stroke: light-dark(rgb(51, 102, 204), rgb(111, 155, 242));"/><path d="M 40 500 L 657.6 500 Q 660 500 660 497.6 L 660 392.4 Q 660 390 657.6 390 L 40 390" fill="none" stroke="#3366cc" stroke-miterlimit="10" pointer-events="none" style="stroke: light-dark(rgb(51, 102, 204), rgb(111, 155, 242));"/><path d="M 40 390 L 40 500" fill="none" stroke="#3366cc" stroke-miterlimit="10" pointer-events="none" style="stroke: light-dark(rgb(51, 102, 204), rgb(111, 155, 242));"/></g><g><g fill="#000000" font-family="Helvetica" font-weight="bold" text-anchor="middle" transform="rotate(-90,20,445)" font-size="14px" style="fill: light-dark(rgb(0, 0, 0), rgb(255, 255, 255));"><text x="20" y="451">外部服务层 </text></g></g><g data-cell-id="e1"><g transform="translate(0.5,0.5)" style="filter: drop-shadow(light-dark(rgba(0, 0, 0, 0.25), rgba(237, 237, 237, 0.25)) 2px 3px 2px);"><path d="M 100 425 C 100 416.72 133.58 410 175 410 C 194.89 410 213.97 411.58 228.03 414.39 C 242.1 417.21 250 421.02 250 425 L 250 465 C 250 473.28 216.42 480 175 480 C 133.58 480 100 473.28 100 465 Z" fill="#ffffff" stroke="#333333" stroke-miterlimit="10" pointer-events="all" style="fill: light-dark(rgb(255, 255, 255), rgb(18, 18, 18)); stroke: light-dark(rgb(51, 51, 51), rgb(193, 193, 193));"/><path d="M 250 425 C 250 433.28 216.42 440 175 440 C 133.58 440 100 433.28 100 425" fill="none" stroke="#333333" stroke-miterlimit="10" pointer-events="all" style="stroke: light-dark(rgb(51, 51, 51), rgb(193, 193, 193));"/></g><g><g fill="#000000" font-family="Helvetica" text-anchor="middle" font-size="12px" style="fill: light-dark(rgb(0, 0, 0), rgb(255, 255, 255));"><text x="175" y="455.78">高德地图 MCP 服务</text><text x="175" y="469.78">(POI / 天气 / 路径)</text></g></g></g><g data-cell-id="e2"><g transform="translate(0.5,0.5)" style="filter: drop-shadow(light-dark(rgba(0, 0, 0, 0.25), rgba(237, 237, 237, 0.25)) 2px 3px 2px);"><path d="M 290 425 C 290 416.72 323.58 410 365 410 C 384.89 410 403.97 411.58 418.03 414.39 C 432.1 417.21 440 421.02 440 425 L 440 465 C 440 473.28 406.42 480 365 480 C 323.58 480 290 473.28 290 465 Z" fill="#ffffff" stroke="#333333" stroke-miterlimit="10" pointer-events="all" style="fill: light-dark(rgb(255, 255, 255), rgb(18, 18, 18)); stroke: light-dark(rgb(51, 51, 51), rgb(193, 193, 193));"/><path d="M 440 425 C 440 433.28 406.42 440 365 440 C 323.58 440 290 433.28 290 425" fill="none" stroke="#333333" stroke-miterlimit="10" pointer-events="all" style="stroke: light-dark(rgb(51, 51, 51), rgb(193, 193, 193));"/></g><g><g fill="#000000" font-family="Helvetica" text-anchor="middle" font-size="12px" style="fill: light-dark(rgb(0, 0, 0), rgb(255, 255, 255));"><text x="365" y="455.78">LLM 推理服务</text><text x="365" y="469.78">(大语言模型 API)</text></g></g></g><g data-cell-id="e3"><g transform="translate(0.5,0.5)" style="filter: drop-shadow(light-dark(rgba(0, 0, 0, 0.25), rgba(237, 237, 237, 0.25)) 2px 3px 2px);"><path d="M 480 425 C 480 416.72 506.86 410 540 410 C 555.91 410 571.17 411.58 582.43 414.39 C 593.68 417.21 600 421.02 600 425 L 600 465 C 600 473.28 573.14 480 540 480 C 506.86 480 480 473.28 480 465 Z" fill="#ffffff" stroke="#333333" stroke-miterlimit="10" pointer-events="all" style="fill: light-dark(rgb(255, 255, 255), rgb(18, 18, 18)); stroke: light-dark(rgb(51, 51, 51), rgb(193, 193, 193));"/><path d="M 600 425 C 600 433.28 573.14 440 540 440 C 506.86 440 480 433.28 480 425" fill="none" stroke="#333333" stroke-miterlimit="10" pointer-events="all" style="stroke: light-dark(rgb(51, 51, 51), rgb(193, 193, 193));"/></g><g><g fill="#000000" font-family="Helvetica" text-anchor="middle" font-size="12px" style="fill: light-dark(rgb(0, 0, 0), rgb(255, 255, 255));"><text x="540" y="455.78">Unsplash API</text><text x="540" y="469.78">(图库服务)</text></g></g></g></g></g></g></g></svg>